<?xml version="1.0" encoding="UTF-8" standalone="no"?>
<!-- Created with Inkscape (http://www.inkscape.org/) -->

<svg
   xmlns:dc="http://purl.org/dc/elements/1.1/"
   xmlns:cc="http://creativecommons.org/ns#"
   xmlns:rdf="http://www.w3.org/1999/02/22-rdf-syntax-ns#"
   xmlns:svg="http://www.w3.org/2000/svg"
   xmlns="http://www.w3.org/2000/svg"
   xmlns:sodipodi="http://sodipodi.sourceforge.net/DTD/sodipodi-0.dtd"
   xmlns:inkscape="http://www.inkscape.org/namespaces/inkscape"
   width="138.40601mm"
   height="110.72399mm"
   viewBox="0 0 490.41498 392.3291"
   id="svg2"
   version="1.1"
   inkscape:version="0.91 r13725"
   sodipodi:docname="bglogo10.svg">
  <defs
     id="defs4" />
  <sodipodi:namedview
     id="base"
     pagecolor="#ffffff"
     bordercolor="#666666"
     borderopacity="1.0"
     inkscape:pageopacity="0.0"
     inkscape:pageshadow="2"
     inkscape:zoom="2.4290831"
     inkscape:cx="245.2075"
     inkscape:cy="196.16455"
     inkscape:document-units="px"
     inkscape:current-layer="layer1"
     showgrid="false"
     inkscape:window-width="1884"
     inkscape:window-height="1155"
     inkscape:window-x="36"
     inkscape:window-y="1"
     inkscape:window-maximized="1"
     fit-margin-top="0"
     fit-margin-left="0"
     fit-margin-right="0"
     fit-margin-bottom="0"
     inkscape:showpageshadow="false"
     showguides="true"
     inkscape:guide-bbox="true">
    <sodipodi:guide
       position="0,332.63579"
       orientation="1,0"
       id="guide4247" />
    <sodipodi:guide
       position="57.634915,392.3291"
       orientation="0,1"
       id="guide4249" />
    <sodipodi:guide
       position="131.73695,0"
       orientation="0,1"
       id="guide4251" />
    <sodipodi:guide
       position="490.30846,80.277203"
       orientation="1,0"
       id="guide4253" />
  </sodipodi:namedview>
  <metadata
     id="metadata7">
    <rdf:RDF>
      <cc:Work
         rdf:about="">
        <dc:format>image/svg+xml</dc:format>
        <dc:type
           rdf:resource="http://purl.org/dc/dcmitype/StillImage" />
        <dc:title></dc:title>
      </cc:Work>
    </rdf:RDF>
  </metadata>
  <g
     inkscape:label="Layer 1"
     inkscape:groupmode="layer"
     id="layer1"
     transform="translate(-122.76334,-157.7176)">
    <rect
       style="fill:#ffffff;fill-opacity:1"
       id="rect4255"
       width="490.30847"
       height="392.3291"
       x="122.76334"
       y="157.71761" />
    <g
       id="g4257"
       style="opacity:0.1">
      <g
         id="g4219"
         style="">
        <g
           id="g4192"
           style="">
          <path
             id="path3542"
             d="m 122.76334,550.0467 16.21583,0 0,-392.3291 -16.21583,0 z m 0,0"
             style="fill:#e6e6bf;fill-opacity:1;fill-rule:nonzero;stroke:none"
             inkscape:connector-curvature="0" />
          <path
             id="path3544"
             d="m 154.37955,550.0467 16.21094,0 0,-392.3291 -16.21094,0 z m 0,0"
             style="fill:#e6e6bf;fill-opacity:1;fill-rule:nonzero;stroke:none"
             inkscape:connector-curvature="0" />
          <path
             id="path3546"
             d="m 185.99087,550.0467 16.21583,0 0,-392.3291 -16.21583,0 z m 0,0"
             style="fill:#e6e6bf;fill-opacity:1;fill-rule:nonzero;stroke:none"
             inkscape:connector-curvature="0" />
          <path
             id="path3548"
             d="m 217.60708,550.0467 16.21094,0 0,-392.3291 -16.21094,0 z m 0,0"
             style="fill:#e6e6bf;fill-opacity:1;fill-rule:nonzero;stroke:none"
             inkscape:connector-curvature="0" />
          <path
             id="path3550"
             d="m 249.21842,550.0467 16.21094,0 0,-392.3291 -16.21094,0 z m 0,0"
             style="fill:#e6e6bf;fill-opacity:1;fill-rule:nonzero;stroke:none"
             inkscape:connector-curvature="0" />
          <path
             id="path3552"
             d="m 280.83462,550.0467 16.21093,0 0,-392.3291 -16.21093,0 z m 0,0"
             style="fill:#e6e6bf;fill-opacity:1;fill-rule:nonzero;stroke:none"
             inkscape:connector-curvature="0" />
          <path
             id="path3554"
             d="m 312.44595,550.0467 16.21094,0 0,-392.3291 -16.21094,0 z m 0,0"
             style="fill:#e6e6bf;fill-opacity:1;fill-rule:nonzero;stroke:none"
             inkscape:connector-curvature="0" />
          <path
             id="path3556"
             d="m 344.06216,550.0467 16.21094,0 0,-392.3291 -16.21094,0 z m 0,0"
             style="fill:#e6e6bf;fill-opacity:1;fill-rule:nonzero;stroke:none"
             inkscape:connector-curvature="0" />
          <path
             id="path3558"
             d="m 375.67348,550.0467 16.21094,0 0,-392.3291 -16.21094,0 z m 0,0"
             style="fill:#e6e6bf;fill-opacity:1;fill-rule:nonzero;stroke:none"
             inkscape:connector-curvature="0" />
          <path
             id="path3560"
             d="m 407.28481,550.0467 16.21582,0 0,-392.3291 -16.21582,0 z m 0,0"
             style="fill:#e6e6bf;fill-opacity:1;fill-rule:nonzero;stroke:none"
             inkscape:connector-curvature="0" />
          <path
             id="path3562"
             d="m 438.90102,550.0467 16.21093,0 0,-392.3291 -16.21093,0 z m 0,0"
             style="fill:#e6e6bf;fill-opacity:1;fill-rule:nonzero;stroke:none"
             inkscape:connector-curvature="0" />
          <path
             id="path3564"
             d="m 470.51234,550.0467 16.21582,0 0,-392.3291 -16.21582,0 z m 0,0"
             style="fill:#e6e6bf;fill-opacity:1;fill-rule:nonzero;stroke:none"
             inkscape:connector-curvature="0" />
          <path
             id="path3566"
             d="m 502.12855,550.0467 16.21094,0 0,-392.3291 -16.21094,0 z m 0,0"
             style="fill:#e6e6bf;fill-opacity:1;fill-rule:nonzero;stroke:none"
             inkscape:connector-curvature="0" />
          <path
             id="path3568"
             d="m 533.73987,550.0467 16.21094,0 0,-392.3291 -16.21094,0 z m 0,0"
             style="fill:#e6e6bf;fill-opacity:1;fill-rule:nonzero;stroke:none"
             inkscape:connector-curvature="0" />
          <path
             id="path3570"
             d="m 565.35608,550.0467 16.21094,0 0,-392.3291 -16.21094,0 z m 0,0"
             style="fill:#e6e6bf;fill-opacity:1;fill-rule:nonzero;stroke:none"
             inkscape:connector-curvature="0" />
          <path
             id="path3572"
             d="m 596.9674,550.0467 16.21094,0 0,-392.3291 -16.21094,0 z m 0,0"
             style="fill:#e6e6bf;fill-opacity:1;fill-rule:nonzero;stroke:none"
             inkscape:connector-curvature="0" />
          <path
             id="path3624"
             d="m 148.32487,353.87971 c 0,-65.38086 98.33984,-118.38379 219.64842,-118.38379 121.30859,0 219.64842,53.00293 219.64842,118.38379 0,65.38574 -98.33983,118.38867 -219.64842,118.38867 -121.30858,0 -219.64842,-53.00293 -219.64842,-118.38867"
             style="fill:#ffffff;fill-opacity:1;fill-rule:nonzero;stroke:none"
             inkscape:connector-curvature="0" />
          <path
             id="path3626"
             d="m 529.27699,364.89533 c -0.15625,1.08887 0.625,1.94336 1.87988,1.94336 1.02051,0 1.80664,-0.54199 1.96289,-1.40137 l 0.39063,-2.6416 c 0.0781,-0.9375 -0.54688,-1.79199 -1.64551,-1.94824 -1.17676,-0.15625 -2.11914,0.46875 -2.27539,1.40137 z m -109.50194,-0.0195 c -0.15625,1.08887 0.62988,1.94336 1.88476,1.94336 1.02051,0 1.80176,-0.54199 1.96289,-1.40137 l 0.39063,-2.6416 c 0.0781,-0.9375 -0.55176,-1.79199 -1.64551,-1.94824 -1.18164,-0.15625 -2.11914,0.46387 -2.28027,1.40137 z m 111.53807,6.7627 c -0.9375,-0.23438 -1.94824,0.3125 -2.10449,1.24511 -2.33398,9.2627 -3.50097,22.8125 -3.50097,23.82325 0,1.01562 0.77636,1.79199 1.78711,1.79199 0.9375,0 1.63574,-0.70313 1.71386,-1.63574 0.46875,-7.39746 1.94824,-17.51954 3.34961,-23.12012 0.0781,-0.16113 0.0781,-0.31738 0.0781,-0.39063 0,-0.78125 -0.54688,-1.47949 -1.32325,-1.71386 z m -10.92285,24.83398 c 0,-0.85449 -0.70312,-1.63574 -1.55761,-1.63574 -0.78125,-0.15137 -3.03711,-0.54199 -3.03711,-6.69434 0,-3.96972 0.69824,-8.87207 2.09961,-13.85742 1.47949,0.0781 4.12597,0.23438 5.60547,0.23438 0.85937,0 1.47949,-0.625 1.47949,-1.55762 0,-0.85449 -0.85449,-1.47949 -1.71387,-1.63574 -2.09961,-0.0781 -3.65723,-0.15625 -4.74609,-0.15625 0.39062,-1.71387 1.40136,-5.83496 2.17773,-8.17383 0.0781,-0.15625 0.15625,-0.54688 0.15625,-0.85449 0,-0.9375 -0.77637,-1.55762 -1.79199,-1.55762 -0.69824,0.0781 -1.32324,0.54199 -1.55762,1.24512 -0.85449,3.11523 -1.78711,6.69433 -2.41211,9.26269 -2.80273,0.0781 -6.06933,0.15625 -6.06933,2.33399 0,0.85937 0.54199,1.32812 1.08886,1.32812 1.08887,0 1.94825,-0.39062 4.2041,-0.39062 -1.47949,5.91796 -1.94824,10.27832 -1.94824,14.01367 0,5.99609 1.87012,9.18945 5.76172,9.80957 0.0781,0 0.46875,0.0781 0.54688,0.0781 0.93261,-0.0781 1.71386,-0.85449 1.71386,-1.79199 z m -15.28808,0 c 0,-0.85449 -0.69824,-1.63574 -1.55762,-1.63574 -0.77637,-0.15137 -3.03222,-0.54199 -3.03222,-6.69434 0,-3.96972 0.69824,-8.87207 2.0996,-13.85742 1.4795,0.0781 4.12598,0.23438 5.60547,0.23438 0.8545,0 1.4795,-0.625 1.4795,-1.55762 0,-0.85449 -0.8545,-1.47949 -1.71387,-1.63574 -2.09961,-0.0781 -3.65723,-0.15625 -4.7461,-0.15625 0.39063,-1.71387 1.40137,-5.83496 2.17774,-8.17383 0.0781,-0.15625 0.15625,-0.54688 0.15625,-0.85449 0,-0.9375 -0.77637,-1.55762 -1.79199,-1.55762 -0.69825,0.0781 -1.32325,0.54199 -1.55762,1.24512 -0.85449,3.11523 -1.78711,6.69433 -2.41211,9.26269 -2.80273,0.0781 -6.06933,0.15625 -6.06933,2.33399 0,0.85937 0.54199,1.32812 1.08886,1.32812 1.08887,0 1.94336,-0.39062 4.2041,-0.39062 -1.47949,5.91796 -1.94824,10.27832 -1.94824,14.01367 0,5.99609 1.87012,9.18945 5.76172,9.80957 0.0781,0 0.46875,0.0781 0.54687,0.0781 0.93262,-0.0781 1.70899,-0.85449 1.70899,-1.79199 z m -21.97754,-26.0791 c -4.98047,0 -7.62695,3.8916 -7.62695,7.62695 0,3.58399 2.33398,6.54297 6.85059,6.54297 1.94335,0 2.0996,-1.24512 2.0996,-1.71387 0,-0.93261 -0.77636,-1.71386 -1.78711,-1.71386 -1.32324,0 -3.6621,0 -3.6621,-3.11524 0,-1.86523 1.01074,-4.35547 3.96972,-4.35547 3.74024,0 4.98535,4.19922 4.98535,7.31446 0,6.62109 -3.58398,14.01367 -9.18945,14.01367 -3.96973,0 -5.60547,-4.74609 -5.60547,-8.79883 0,-1.63086 0.23438,-3.81348 0.70313,-4.98047 0.0781,-0.23437 0.15625,-0.46387 0.15625,-0.77637 0,-0.85937 -0.70313,-1.71386 -1.63575,-1.71386 -0.70312,0 -1.40136,0.54687 -1.63574,1.24511 -0.77636,2.1045 -1.08886,4.12598 -1.08886,6.3086 0,7.24121 3.5791,11.9873 8.95019,11.9873 7.94434,0 12.84668,-8.95507 12.84668,-17.28515 0,-6.22559 -3.18848,-10.58594 -8.33008,-10.58594 z m -17.46093,3.34961 c -0.625,-1.5625 -2.18262,-2.88086 -5.3711,-2.88086 -7.70996,0 -13.08105,8.79394 -13.08105,17.28027 0,7.00684 3.65723,10.12207 8.48633,10.12207 5.91796,0 9.57519,-4.74609 9.57519,-6.23047 0,-1.01074 -0.54687,-1.7871 -1.47949,-1.7871 -0.69824,0 -1.16699,0.46386 -1.47949,1.01074 -1.55762,2.80273 -4.28223,3.8916 -6.38184,3.8916 -1.71387,0 -5.21972,-0.77637 -5.21972,-7.00684 0,-5.76172 3.27148,-13.93554 9.3457,-13.93554 1.40136,0 2.17773,0.70312 2.72461,1.47949 0.39062,0.54687 0.93261,0.85449 1.47949,0.85449 1.01074,0 1.63574,-0.77637 1.63574,-1.70898 0,-0.3125 -0.0781,-0.78125 -0.23437,-1.08887 z m -35.52735,12.76367 c -2.95898,0 -5.37109,2.33887 -5.37109,5.60547 0,3.89648 4.04785,6.46484 8.48633,6.46484 5.91797,0 9.34082,-3.58398 9.34082,-8.4082 0,-3.97461 -2.56836,-6.23047 -6.38184,-8.48633 -3.11523,-1.87012 -3.81347,-2.80273 -3.81347,-4.28222 0,-2.02637 1.39648,-3.58399 3.8916,-3.58399 2.02636,0 3.11523,1.71387 3.34961,2.49024 0.15136,0.625 0.93261,1.01562 1.39648,1.01562 1.01563,0 1.79199,-0.78125 1.79199,-1.79199 0,-1.32324 -1.79199,-4.66797 -6.45996,-4.66797 -4.8291,0 -7.39746,3.34473 -7.39746,6.53809 0,3.8916 3.19336,5.99121 5.6836,7.31933 3.50097,1.86524 4.43847,4.04785 4.43847,5.91309 0,3.50586 -2.95898,5.1416 -5.76172,5.1416 -2.80273,0 -5.06347,-1.87012 -5.06347,-3.74024 0,-1.08886 0.39062,-2.25585 1.87011,-2.25585 0.54688,0 0.78125,0.15625 1.24512,0.23437 0.46875,0.0781 1.55762,-0.15625 1.55762,-1.47949 0,-1.55762 -1.40137,-2.02637 -2.80274,-2.02637 z m -9.67773,-14.86816 c -0.93262,-0.23438 -1.94336,0.3125 -2.09961,1.24511 -2.33886,9.2627 -3.50586,22.8125 -3.50586,23.82325 0,1.01562 0.78125,1.79199 1.792,1.79199 0.93261,0 1.63574,-0.70313 1.71386,-1.63574 0.46875,-7.39746 1.94336,-17.51954 3.34473,-23.12012 0.0781,-0.16113 0.0781,-0.31738 0.0781,-0.39063 0,-0.78125 -0.54199,-1.47949 -1.32324,-1.71386 z M 375.6686,357.65412 c 0,-2.1875 1.87013,-4.6875 6.07423,-5.625 -0.15625,2.89063 -0.85938,6.79688 -1.55763,10.07813 -2.10449,-0.46875 -4.5166,-1.79688 -4.5166,-4.45313 z m 17.9834,38.66699 c -6.30371,0 -13.23242,-3.50586 -13.23242,-14.01855 0,-5.29297 1.08887,-10.59082 2.64648,-16.75781 6.22559,0.0781 9.5752,-3.35938 9.5752,-7.42188 0,-0.9375 0,-2.8125 -1.792,-2.8125 -1.01073,0 -1.63573,0.78125 -1.63573,1.64063 0,0.23437 0.15625,1.01562 0.15625,1.17187 0,3.20313 -3.65723,4.29688 -5.68359,4.29688 0.78125,-3.98926 1.40136,-7.66602 1.47949,-10.94727 7.24121,-0.38574 13.78417,1.72363 16.8164,4.77051 1.63575,1.5625 2.49512,3.59375 2.49512,6.32812 0,3.36426 -3.03711,8.83301 -14.16992,8.98926 -0.9375,0 -1.71387,0.77637 -1.71387,1.71387 0,1.01074 0.77637,1.63574 1.71387,1.55762 10.66406,-0.78125 16.66015,3.42285 16.66015,10.11718 0,7.70996 -6.9287,11.37207 -13.31543,11.37207 z m 5.83985,-23.67187 c 6.23046,-2.10938 8.4082,-6.5625 8.4082,-10.07324 0,-13.28125 -16.89454,-14.45313 -22.8125,-14.14063 -0.38574,-5.29297 -2.25586,-8.01758 -3.81347,-8.01758 -1.01075,0 -1.71388,0.77637 -1.71388,1.71387 0,0.46387 0.0781,0.85449 0.46875,1.24512 1.08888,1.16699 1.4795,3.50097 1.55763,5.52734 -6.15235,1.25 -9.41895,4.84375 -9.41895,8.75 0,3.51563 2.64648,6.40625 7.62695,7.42188 -1.47949,5.77636 -2.88085,11.69922 -2.88085,17.38281 0,11.83594 7.47558,16.73828 16.73827,16.73828 8.95508,0 16.81641,-4.74609 16.81641,-14.24805 0,-4.35547 -2.49024,-10.97656 -10.97656,-12.2998 z m -53.53027,10.20019 c -1.01563,0.0781 -1.71388,0.8545 -1.71388,1.71387 0,1.01074 0.77638,1.63086 1.71388,1.63086 4.58984,0 11.05469,-3.03223 11.05469,-9.18457 0,-3.11523 -1.87013,-5.99609 -6.54298,-5.99609 -6.14746,0 -12.99803,6.85058 -12.99803,16.66504 0,6.61621 3.81347,10.58593 9.73143,10.58593 4.7461,0 8.48633,-3.11523 8.48633,-4.59472 0,-1.01075 -0.625,-1.792 -1.55762,-1.792 -0.54687,0 -0.93261,0.23438 -1.24511,0.625 -1.32325,1.63575 -3.42774,2.56836 -5.4541,2.56836 -5.60547,0 -6.45996,-4.74609 -6.45996,-7.39257 0,-8.33497 5.52734,-13.31543 9.42382,-13.31543 2.02149,0 3.11035,1.08886 3.11035,2.64648 0,3.50586 -3.8916,5.76172 -7.54882,5.83984 z m -34.30664,0 c -1.01075,0.0781 -1.71387,0.8545 -1.71387,1.71387 0,1.01074 0.78125,1.63086 1.71387,1.63086 4.59473,0 11.05469,-3.03223 11.05469,-9.18457 0,-3.11523 -1.86524,-5.99609 -6.53809,-5.99609 -6.14746,0 -13.00293,6.85058 -13.00293,16.66504 0,6.61621 3.81836,10.58593 9.73633,10.58593 4.74609,0 8.48144,-3.11523 8.48144,-4.59472 0,-1.01075 -0.62011,-1.792 -1.55761,-1.792 -0.542,0 -0.93263,0.23438 -1.24513,0.625 -1.31835,1.63575 -3.42285,2.56836 -5.44921,2.56836 -5.60547,0 -6.45996,-4.74609 -6.45996,-7.39257 0,-8.33497 5.52735,-13.31543 9.41895,-13.31543 2.02636,0 3.11522,1.08886 3.11522,2.64648 0,3.50586 -3.8916,5.76172 -7.5537,5.83984 z m -13.41308,13.62305 c 0,-0.85449 -0.70313,-1.63574 -1.55763,-1.63574 -0.77636,-0.15137 -3.0371,-0.54199 -3.0371,-6.69434 0,-3.96972 0.70313,-8.87207 2.10449,-13.85742 1.47949,0.0781 4.12598,0.23438 5.60546,0.23438 0.8545,0 1.4795,-0.625 1.4795,-1.55762 0,-0.85449 -0.85937,-1.47949 -1.71387,-1.63574 -2.10449,-0.0781 -3.6621,-0.15625 -4.75098,-0.15625 0.39063,-1.71387 1.40138,-5.83496 2.18263,-8.17383 0.0781,-0.15625 0.15625,-0.54688 0.15625,-0.85449 0,-0.9375 -0.78125,-1.55762 -1.792,-1.55762 -0.70313,0.0781 -1.32324,0.54199 -1.55761,1.24512 -0.85449,3.11523 -1.79199,6.69433 -2.41212,9.26269 -2.80273,0.0781 -6.07421,0.15625 -6.07421,2.33399 0,0.85937 0.54688,1.32812 1.08886,1.32812 1.09375,0 1.94824,-0.39062 4.2041,-0.39062 -1.47948,5.91796 -1.94336,10.27832 -1.94336,14.01367 0,5.99609 1.86524,9.18945 5.76173,9.80957 0.0733,0 0.46386,0.0781 0.54198,0.0781 0.93263,-0.0781 1.71388,-0.85449 1.71388,-1.79199 z m -15.28321,0 c 0,-0.85449 -0.70313,-1.63574 -1.55762,-1.63574 -0.77636,-0.15137 -3.03711,-0.54199 -3.03711,-6.69434 0,-3.96972 0.70313,-8.87207 2.1045,-13.85742 1.47949,0.0781 4.12598,0.23438 5.60546,0.23438 0.8545,0 1.4795,-0.625 1.4795,-1.55762 0,-0.85449 -0.85937,-1.47949 -1.71387,-1.63574 -2.10449,-0.0781 -3.65723,-0.15625 -4.75098,-0.15625 0.39063,-1.71387 1.40137,-5.83496 2.18262,-8.17383 0.0781,-0.15625 0.15625,-0.54688 0.15625,-0.85449 0,-0.9375 -0.78125,-1.55762 -1.79199,-1.55762 -0.70313,0.0781 -1.32324,0.54199 -1.55761,1.24512 -0.85938,3.11523 -1.792,6.69433 -2.41211,9.26269 -2.80274,0.0781 -6.07423,0.15625 -6.07423,2.33399 0,0.85937 0.54688,1.32812 1.08888,1.32812 1.09375,0 1.94823,-0.39062 4.2041,-0.39062 -1.47949,5.91796 -1.94337,10.27832 -1.94337,14.01367 0,5.99609 1.86524,9.18945 5.76173,9.80957 0.0732,0 0.46386,0.0781 0.54198,0.0781 0.9375,-0.0781 1.71387,-0.85449 1.71387,-1.79199 z m -22.13379,-25.92285 c -8.56445,0 -14.16991,11.28906 -14.16991,19.38477 0,5.83984 3.18847,8.17382 6.3037,8.17382 5.60547,0 8.09571,-5.21484 8.09571,-6.53808 0,-0.9375 -0.62012,-1.71387 -1.63086,-1.71387 -0.625,0 -1.24511,0.39063 -1.47949,1.01074 -0.77637,2.10449 -2.33399,3.96973 -4.43849,3.96973 -2.02636,0 -3.3496,-2.02149 -3.3496,-4.90234 0,-7.08497 4.43848,-16.11817 10.35644,-16.11817 2.02638,0 4.04785,1.40625 4.04785,5.1416 0,2.72461 -0.54199,5.76172 -1.01074,8.64258 -0.39062,2.80274 -0.85448,4.98047 -0.85448,6.61621 0,1.55762 0.46386,3.73535 2.17772,3.73535 0.93263,0 1.792,-0.77636 1.792,-1.63086 0,-0.39062 -0.15625,-0.625 -0.3125,-0.9375 -0.0781,-0.23437 -0.15625,-0.54687 -0.15625,-1.01074 0,-1.55762 0.46875,-4.2041 0.77636,-6.23047 0.54688,-2.95898 1.01563,-6.38183 1.01563,-9.34082 0,-5.37597 -2.72461,-8.25195 -7.16309,-8.25195 z m -36.61621,-7.39746 c -1.63574,0.39062 -3.27147,0.54199 -4.98535,0.54199 -3.50097,0 -9.02831,-1.24512 -9.02831,-7.08008 0,-0.9375 -0.70312,-1.71386 -1.63575,-1.71386 -1.01074,0 -1.71386,0.77636 -1.71386,1.71386 0,6.77246 5.21972,10.42969 12.37792,10.42969 1.55763,0 3.11524,-0.15625 4.59473,-0.39062 -0.54199,7.24121 -0.625,8.10058 -1.01074,10.66894 -14.94629,-0.23437 -21.56739,8.95508 -21.56739,15.49316 0,4.90723 3.66212,7.93946 8.01759,7.93946 8.25684,0 13.70605,-6.77246 16.43066,-19.93164 10.89844,1.47949 13.31055,8.33496 13.31055,13.00293 0,3.19336 -1.31836,6.07422 -4.51172,8.17382 -0.46875,0.3125 -0.78125,0.78125 -0.78125,1.40625 0,0.93262 0.78125,1.70899 1.79198,1.70899 1.167,0 6.92872,-3.96973 6.92872,-11.21094 0,-5.99609 -3.42773,-14.56055 -16.1914,-16.34765 0.30761,-1.87012 0.93261,-8.72071 1.16698,-11.83594 8.56445,-3.03711 15.80567,-9.34082 15.80567,-16.42578 0,-3.81836 -2.33887,-5.91797 -5.21973,-5.91797 -7.16309,0 -12.6123,8.7207 -13.7793,19.77539 z m -14.87303,34.33594 c -2.33399,0 -4.58985,-1.71387 -4.58985,-4.67286 0,-5.29296 5.52735,-12.14843 17.59277,-12.14843 -2.25586,10.90332 -6.69434,16.82129 -13.00292,16.82129 z m 18.45702,-35.42481 c 1.94336,-11.67969 6.92382,-15.18555 9.5752,-15.18555 1.39649,0 2.25586,1.09375 2.25586,2.49512 0,4.5166 -4.98536,9.96582 -11.83106,12.69043 z m 0,0"
             style="fill:#5c7d35;fill-opacity:1;fill-rule:evenodd;stroke:#5c7d35;stroke-width:0.80999994;stroke-linecap:butt;stroke-linejoin:miter;stroke-miterlimit:3.86400008;stroke-opacity:1"
             inkscape:connector-curvature="0" />
          <path
             id="path3668"
             d="m 543.54945,369.84162 c 2.57812,0 4.77538,-2.00195 4.77538,-4.73632 0,-2.71485 -2.19726,-4.71192 -4.77538,-4.71192 -2.59767,0 -4.7998,1.99707 -4.7998,4.71192 0,2.73437 2.20213,4.73632 4.7998,4.73632 z m -3.84767,-4.73632 c 0,-2.24122 1.68458,-3.92579 3.84767,-3.92579 2.13867,0 3.82812,1.68458 3.82812,3.92579 0,2.27538 -1.68945,3.95018 -3.82812,3.95018 -2.16309,0 -3.84767,-1.6748 -3.84767,-3.95018 z m 2.84669,0.37109 0.95215,0 1.43554,2.36328 0.92774,0 -1.55274,-2.39746 c 0.80079,-0.1025 1.41602,-0.52735 1.41602,-1.49903 0,-1.0791 -0.63965,-1.55273 -1.92871,-1.55273 l -2.0752,0 0,5.44922 0.8252,0 z m 0,-0.69824 0,-1.68458 1.12793,0 c 0.57617,0 1.18652,0.12213 1.18652,0.7959 0,0.83985 -0.625,0.88868 -1.32324,0.88868 l -0.99121,0"
             style="fill:#5c7d35;fill-opacity:1;fill-rule:evenodd;stroke:none"
             inkscape:connector-curvature="0" />
          <path
             id="path3670"
             d="m 306.85024,336.89729 c 7.94922,-25.8545 31.97754,-44.64356 60.43945,-44.64356 28.45703,0 52.52929,18.78418 60.48828,44.63379"
             style="fill:none;stroke:#5c7d35;stroke-width:4.67000008;stroke-linecap:round;stroke-linejoin:miter;stroke-miterlimit:3.5;stroke-opacity:1"
             inkscape:connector-curvature="0" />
          <path
             id="path3672"
             d="m 289.61392,337.50764 c 3.54003,-8.48633 9.09667,-13.96973 15.43457,-13.96973 2.2412,0 4.39941,0.68848 6.40624,1.95313"
             style="fill:none;stroke:#5c7d35;stroke-width:4.67000008;stroke-linecap:round;stroke-linejoin:miter;stroke-miterlimit:3.5;stroke-opacity:1"
             inkscape:connector-curvature="0" />
          <path
             id="path3674"
             d="m 445.18031,337.2049 c -3.54492,-8.48633 -9.10156,-13.96972 -15.43457,-13.96972 -2.24609,0 -4.40429,0.68847 -6.41113,1.95312"
             style="fill:none;stroke:#5c7d35;stroke-width:4.67000008;stroke-linecap:round;stroke-linejoin:miter;stroke-miterlimit:3.5;stroke-opacity:1"
             inkscape:connector-curvature="0" />
          <path
             id="path3676"
             d="m 373.12466,273.19611 c 0.88867,-0.44433 1.35742,-0.91308 1.80175,-1.79687 0.99122,-1.9873 -0.14648,-3.9209 -1.80175,-5.40527 -2.66602,-2.38282 -6.51367,-0.77149 -8.99903,1.80175 -3.45214,3.57422 -1.73828,9.1211 1.79688,12.60254 4.53125,4.46289 11.72363,2.71485 16.20605,-1.80175 5.45899,-5.50293 3.69141,-14.33106 -1.80175,-19.79981 -6.48926,-6.45996 -16.79688,-4.53613 -23.40332,1.80176 -9.36035,8.97461 -2.62207,29.83886 10.21972,31.64551"
             style="fill:none;stroke:#5c7d35;stroke-width:4.67000008;stroke-linecap:round;stroke-linejoin:miter;stroke-miterlimit:3.5;stroke-opacity:1"
             inkscape:connector-curvature="0" />
          <text
             transform="scale(1.1260564,0.88805498)"
             sodipodi:linespacing="125%"
             id="text4024"
             y="480.21457"
             x="246.30443"
             style="font-style:normal;font-weight:normal;font-size:35.52219772px;line-height:125%;font-family:sans-serif;letter-spacing:0px;word-spacing:0px;fill:#5c7d35;fill-opacity:1;stroke:none;stroke-width:1px;stroke-linecap:butt;stroke-linejoin:miter;stroke-opacity:1"
             xml:space="preserve"><tspan
               style="font-style:normal;font-variant:normal;font-weight:normal;font-stretch:normal;font-size:13.32082462px;font-family:Montserrat;-inkscape-font-specification:Montserrat;fill:#5c7d35;fill-opacity:1"
               y="480.21457"
               x="246.30443"
               id="tspan4026"
               sodipodi:role="line">SIMPLY MADE IN ITALY</tspan></text>
        </g>
      </g>
    </g>
  </g>
</svg>
